<svg width="1024" height="1024" xmlns="http://www.w3.org/2000/svg">
	<path fill="#ffbb00" d="m884.02936,236.64015c0,0 -106.41241,-82.26292 -232.46918,-91.67662l-11.04846,22.50946c113.77637,27.42189 165.75482,67.12131 220.1886,115.82498c-93.72473,-47.88553 -186.62811,-97.40724 -348.70099,-97.40724s-254.97723,49.52171 -348.69991,97.40724c54.43275,-48.70367 116.64183,-92.90579 220.18773,-115.82498l-11.0499,-22.50946c-132.19557,12.68739 -232.46663,91.67662 -232.46663,91.67662s-119.09842,171.48534 -139.56211,506.67979c120.32627,137.51495 302.45302,138.33447 302.45302,138.33447l37.6525,-50.33984c-64.25616,-22.10223 -137.51503,-61.80054 -200.54341,-133.83295c75.30611,56.4798 188.67412,102.31818 372.0287,102.31818s296.72278,-45.83838 372.03003,-102.31818c-63.02972,72.03241 -136.28839,111.73071 -200.54468,133.83295l37.65259,50.33984c0,0 182.12677,-0.81952 302.45306,-138.33447c-20.46381,-335.19446 -139.56097,-506.67979 -139.56097,-506.67979zm-515.27539,440.37785c-45.02029,0 -81.85455,-45.83832 -81.85455,-102.31812s36.83426,-102.31818 81.85455,-102.31818s81.85446,45.83826 81.85446,102.31818s-36.83432,102.31812 -81.85446,102.31812zm286.49078,0c-45.01892,0 -81.85443,-45.83832 -81.85443,-102.31812s36.83551,-102.31818 81.85443,-102.31818s81.85468,45.83826 81.85468,102.31818s-36.83569,102.31812 -81.85468,102.31812z" />
</svg>