<svg width="1024" height="1024" xmlns="http://www.w3.org/2000/svg">
	<path fill="#ffbb00" d="m512.011475,1c-282.233856,0 -511.01352,228.773422 -511.01352,511.00061c0,282.225647 228.779679,510.99884 511.01352,510.99884c282.210022,0 510.989868,-228.773193 510.989868,-510.99884c0,-282.227203 -228.779846,-511.00061 -510.989868,-511.00061zm46.674316,805.306396l-95.171356,0l0,-91.272339l95.171356,0l0,91.272339zm0,-188.709351l0,30.153503l-95.171356,0l0,-37.155762c0,-112.154907 127.641815,-129.955536 127.641815,-209.665863c0,-36.340912 -32.495972,-64.176636 -75.051086,-64.176636c-44.085358,0 -82.744019,32.470978 -82.744019,32.470978l-54.193634,-67.332581c0,0 53.403564,-55.696136 145.468903,-55.696136c87.429443,0 168.6203,54.142303 168.6203,145.43988c0.02417,127.687897 -134.570923,142.406769 -134.570923,225.962616z" />
</svg>