<svg width="1024" height="1024" xmlns="http://www.w3.org/2000/svg">
	<path fill="#ffbb00" d="m514.13568,158.13281c36.30634,-1.22874 65.13788,-34.40524 66.20569,-76.18303c1.06781,-45.46407 -30.9671,-82.32683 -70.47705,-81.09807c-36.30637,1.22876 -65.13788,34.40524 -66.20569,76.18304c-1.06787,45.46408 30.96716,82.32684 70.47705,81.09806zm495.4751,471.84338l-19.22101,0l-135.61493,-302.27466c19.22101,-2.45746 38.44196,-11.05881 55.52734,-19.6601c25.62805,-13.51636 30.96729,-52.83667 11.74622,-76.18307l-1.06787,-1.22876c-11.74615,-13.51634 -29.89935,-18.43138 -45.91687,-9.83008c-14.94965,7.37256 -36.30634,15.97388 -56.59515,15.97388c-59.79877,0 -86.49463,-78.64056 -306.46851,-78.64056s-246.66974,78.64056 -306.46844,78.64056c-21.35669,0 -41.64554,-7.37256 -56.59523,-15.97388c-16.0175,-7.37253 -34.17068,-3.68626 -45.91687,9.83008l-1.06783,1.22876c-19.22103,23.34641 -13.88184,61.43793 11.74617,76.18307c17.08537,9.83002 36.30637,17.20264 55.5274,19.6601l-135.61497,302.27466l-19.22101,0c-8.54267,0 -14.94968,8.60132 -13.88184,18.43134c11.74618,78.64063 98.24077,138.84979 203.95636,138.84979s192.21017,-60.20923 203.95636,-138.84979c1.06781,-9.83002 -5.33917,-18.43134 -13.88187,-18.43134l-19.22098,0l-135.61499,-301.0459c88.63025,-8.60129 135.61499,-60.20917 203.95639,-60.20917l0,597.1767c-37.37424,0 -68.3414,35.63403 -68.3414,78.64063l-75.81622,0c-29.89941,0 -60.86661,35.63403 -60.86661,78.64056l546.7312,0c0,-43.00653 -30.96722,-78.64056 -75.81622,-78.64056l-60.86652,0c0,-43.00659 -30.96722,-78.64063 -68.34149,-78.64063l0,-597.1767c68.34149,0 115.32617,51.60788 203.95642,60.20917l-135.61493,301.0459l-19.22101,0c-8.54272,0 -14.94971,8.60132 -13.88196,18.43134c11.74622,78.64063 98.24084,138.84979 203.95642,138.84979s192.21021,-60.20923 203.95642,-138.84979c1.06781,-9.83002 -5.33923,-18.43134 -13.88196,-18.43134zm-702.63495,0l-205.02421,0l102.51209,-221.17654l102.51212,221.17654zm410.04834,0l102.51215,-221.17654l102.51208,221.17654l-205.02423,0z" />
</svg>